<svg xmlns="http://www.w3.org/2000/svg" xmlns:xlink="http://www.w3.org/1999/xlink" width="227" zoomAndPan="magnify" viewBox="0 0 170.25 113.249998" height="151" preserveAspectRatio="xMidYMid meet" version="1.2"><defs><clipPath id="a14934fcab"><path d="M 13.433594 31.128906 L 61.0625 31.128906 L 61.0625 81.730469 L 13.433594 81.730469 Z M 13.433594 31.128906 "/></clipPath></defs><g id="80c7f482c7"><g clip-rule="nonzero" clip-path="url(#a14934fcab)"><path style=" stroke:none;fill-rule:nonzero;fill:#000000;fill-opacity:1;" d="M 61.042969 32.617188 L 61.042969 43.035156 L 59.554688 43.035156 L 59.554688 44.523438 L 49.144531 44.523438 L 49.144531 46.011719 L 58.070312 46.011719 L 58.070312 47.5 L 56.582031 47.5 L 56.582031 48.988281 L 49.144531 48.988281 L 49.144531 53.453125 L 47.65625 53.453125 L 47.65625 56.429688 L 52.121094 56.429688 L 52.121094 62.382812 L 49.144531 62.382812 L 49.144531 59.40625 L 47.65625 59.40625 L 47.65625 63.871094 L 46.171875 63.871094 L 46.171875 66.847656 L 44.683594 66.847656 L 44.683594 68.335938 L 43.195312 68.335938 L 43.195312 69.824219 L 41.710938 69.824219 L 41.710938 71.3125 L 40.222656 71.3125 L 40.222656 77.265625 L 38.734375 77.265625 L 38.734375 80.242188 L 40.222656 80.242188 L 40.222656 81.730469 L 34.273438 81.730469 L 34.273438 75.777344 L 29.8125 75.777344 L 29.8125 77.265625 L 28.324219 77.265625 L 28.324219 80.242188 L 29.8125 80.242188 L 29.8125 81.730469 L 23.863281 81.730469 L 23.863281 72.800781 L 22.375 72.800781 L 22.375 71.3125 L 20.890625 71.3125 L 20.890625 69.824219 L 19.402344 69.824219 L 19.402344 68.335938 L 17.914062 68.335938 L 17.914062 66.847656 L 16.425781 66.847656 L 16.425781 65.359375 L 14.941406 65.359375 L 14.941406 63.871094 L 13.453125 63.871094 L 13.453125 53.453125 L 14.941406 53.453125 L 14.941406 51.964844 L 16.425781 51.964844 L 16.425781 53.453125 L 17.914062 53.453125 L 17.914062 54.941406 L 19.402344 54.941406 L 19.402344 56.429688 L 20.890625 56.429688 L 20.890625 57.917969 L 22.375 57.917969 L 22.375 59.40625 L 26.835938 59.40625 L 26.835938 57.917969 L 28.324219 57.917969 L 28.324219 56.429688 L 29.8125 56.429688 L 29.8125 54.941406 L 31.300781 54.941406 L 31.300781 53.453125 L 32.785156 53.453125 L 32.785156 51.964844 L 34.273438 51.964844 L 34.273438 50.476562 L 35.761719 50.476562 L 35.761719 35.59375 L 37.246094 35.59375 L 37.246094 34.105469 L 38.734375 34.105469 L 38.734375 32.617188 L 40.222656 32.617188 L 40.222656 31.128906 L 59.554688 31.128906 L 59.554688 32.617188 Z M 61.042969 32.617188 "/></g><path style=" stroke:none;fill-rule:nonzero;fill:#ffffff;fill-opacity:1;" d="M 43.195312 35.59375 L 46.171875 35.59375 L 46.171875 38.570312 L 43.195312 38.570312 Z M 26.835938 60.894531 L 26.835938 62.382812 L 28.324219 62.382812 L 28.324219 60.894531 Z M 23.863281 60.894531 L 23.863281 62.382812 L 25.351562 62.382812 L 25.351562 60.894531 Z M 20.890625 60.894531 L 20.890625 62.382812 L 22.375 62.382812 L 22.375 60.894531 Z M 20.890625 60.894531 L 20.890625 59.40625 L 19.402344 59.40625 L 19.402344 60.894531 Z M 19.402344 59.40625 L 19.402344 57.917969 L 17.914062 57.917969 L 17.914062 59.40625 Z M 17.914062 56.429688 L 16.425781 56.429688 L 16.425781 57.917969 L 17.914062 57.917969 Z M 14.941406 54.941406 L 14.941406 56.429688 L 16.425781 56.429688 L 16.425781 54.941406 Z M 17.914062 60.894531 L 17.914062 62.382812 L 19.402344 62.382812 L 19.402344 60.894531 Z M 16.425781 59.40625 L 16.425781 60.894531 L 17.914062 60.894531 L 17.914062 59.40625 Z M 14.941406 57.917969 L 14.941406 59.40625 L 16.425781 59.40625 L 16.425781 57.917969 Z M 29.8125 59.40625 L 28.324219 59.40625 L 28.324219 60.894531 L 29.8125 60.894531 Z M 31.300781 57.917969 L 29.8125 57.917969 L 29.8125 59.40625 L 31.300781 59.40625 Z M 32.785156 56.429688 L 31.300781 56.429688 L 31.300781 57.917969 L 32.785156 57.917969 Z M 34.273438 54.941406 L 32.785156 54.941406 L 32.785156 56.429688 L 34.273438 56.429688 Z M 35.761719 53.453125 L 34.273438 53.453125 L 34.273438 54.941406 L 35.761719 54.941406 Z M 37.246094 51.964844 L 35.761719 51.964844 L 35.761719 53.453125 L 37.246094 53.453125 Z M 37.246094 51.964844 L 38.734375 51.964844 L 38.734375 50.476562 L 37.246094 50.476562 Z M 37.246094 48.988281 L 38.734375 48.988281 L 38.734375 47.5 L 37.246094 47.5 Z M 37.246094 46.011719 L 38.734375 46.011719 L 38.734375 44.523438 L 37.246094 44.523438 Z M 37.246094 41.546875 L 37.246094 43.035156 L 38.734375 43.035156 L 38.734375 41.546875 Z M 37.246094 38.570312 L 37.246094 40.058594 L 38.734375 40.058594 L 38.734375 38.570312 Z M 37.246094 35.59375 L 37.246094 37.082031 L 38.734375 37.082031 L 38.734375 35.59375 Z M 38.734375 38.570312 L 40.222656 38.570312 L 40.222656 37.082031 L 38.734375 37.082031 Z M 38.734375 41.546875 L 40.222656 41.546875 L 40.222656 40.058594 L 38.734375 40.058594 Z M 38.734375 44.523438 L 40.222656 44.523438 L 40.222656 43.035156 L 38.734375 43.035156 Z M 40.222656 47.5 L 40.222656 46.011719 L 38.734375 46.011719 L 38.734375 47.5 Z M 40.222656 50.476562 L 40.222656 48.988281 L 38.734375 48.988281 L 38.734375 50.476562 Z M 40.222656 53.453125 L 40.222656 51.964844 L 38.734375 51.964844 L 38.734375 53.453125 Z M 37.246094 54.941406 L 38.734375 54.941406 L 38.734375 53.453125 L 37.246094 53.453125 Z M 35.761719 56.429688 L 37.246094 56.429688 L 37.246094 54.941406 L 35.761719 54.941406 Z M 34.273438 57.917969 L 35.761719 57.917969 L 35.761719 56.429688 L 34.273438 56.429688 Z M 32.785156 59.40625 L 34.273438 59.40625 L 34.273438 57.917969 L 32.785156 57.917969 Z M 31.300781 60.894531 L 32.785156 60.894531 L 32.785156 59.40625 L 31.300781 59.40625 Z M 29.8125 62.382812 L 31.300781 62.382812 L 31.300781 60.894531 L 29.8125 60.894531 Z M 28.324219 63.871094 L 29.8125 63.871094 L 29.8125 62.382812 L 28.324219 62.382812 Z M 25.351562 63.871094 L 26.835938 63.871094 L 26.835938 62.382812 L 25.351562 62.382812 Z M 22.375 63.871094 L 23.863281 63.871094 L 23.863281 62.382812 L 22.375 62.382812 Z M 19.402344 63.871094 L 20.890625 63.871094 L 20.890625 62.382812 L 19.402344 62.382812 Z M 40.222656 34.105469 L 38.734375 34.105469 L 38.734375 35.59375 L 40.222656 35.59375 Z M 41.710938 32.617188 L 40.222656 32.617188 L 40.222656 34.105469 L 41.710938 34.105469 Z M 44.683594 32.617188 L 43.195312 32.617188 L 43.195312 34.105469 L 44.683594 34.105469 Z M 46.171875 32.617188 L 46.171875 34.105469 L 47.65625 34.105469 L 47.65625 32.617188 Z M 40.222656 37.082031 L 41.710938 37.082031 L 41.710938 35.59375 L 40.222656 35.59375 Z M 41.710938 34.105469 L 41.710938 35.59375 L 43.195312 35.59375 L 43.195312 34.105469 Z M 41.710938 40.058594 L 41.710938 38.570312 L 40.222656 38.570312 L 40.222656 40.058594 Z M 41.710938 43.035156 L 41.710938 41.546875 L 40.222656 41.546875 L 40.222656 43.035156 Z M 41.710938 43.035156 "/><g style="fill:#000000;fill-opacity:1;"><g transform="translate(70.923082, 60.717502)"><path style="stroke:none" d="M 0.96875 0 L 0.96875 -9.71875 L 8.75 -9.71875 L 8.75 -7.78125 L 2.921875 -7.78125 L 2.921875 -3.890625 L 8.75 -3.890625 L 8.75 -1.9375 L 2.921875 -1.9375 L 2.921875 0 Z M 8.75 -3.890625 L 8.75 -7.78125 L 10.703125 -7.78125 L 10.703125 -3.890625 Z M 8.75 -3.890625 "/></g></g><g style="fill:#000000;fill-opacity:1;"><g transform="translate(82.585206, 60.717502)"><path style="stroke:none" d="M 0.96875 0 L 0.96875 -1.9375 L 2.921875 -1.9375 L 2.921875 -7.78125 L 0.96875 -7.78125 L 0.96875 -9.71875 L 6.8125 -9.71875 L 6.8125 -7.78125 L 4.859375 -7.78125 L 4.859375 -1.9375 L 6.8125 -1.9375 L 6.8125 0 Z M 0.96875 0 "/></g></g><g style="fill:#000000;fill-opacity:1;"><g transform="translate(90.359963, 60.717502)"><path style="stroke:none" d="M 2.921875 -3.890625 L 2.921875 0 L 0.96875 0 L 0.96875 -3.890625 Z M 0.96875 -5.828125 L 0.96875 -9.71875 L 2.921875 -9.71875 L 2.921875 -5.828125 Z M 2.921875 -3.890625 L 2.921875 -5.828125 L 8.75 -5.828125 L 8.75 -3.890625 Z M 8.75 0 L 8.75 -3.890625 L 10.703125 -3.890625 L 10.703125 0 Z M 8.75 -5.828125 L 8.75 -9.71875 L 10.703125 -9.71875 L 10.703125 -5.828125 Z M 8.75 -5.828125 "/></g></g><g style="fill:#000000;fill-opacity:1;"><g transform="translate(102.022086, 60.717502)"><path style="stroke:none" d="M 0.96875 0 L 0.96875 -9.71875 L 10.703125 -9.71875 L 10.703125 -7.78125 L 2.921875 -7.78125 L 2.921875 -5.828125 L 8.75 -5.828125 L 8.75 -3.890625 L 2.921875 -3.890625 L 2.921875 -1.9375 L 10.703125 -1.9375 L 10.703125 0 Z M 0.96875 0 "/></g></g><g style="fill:#000000;fill-opacity:1;"><g transform="translate(113.68421, 60.717502)"><path style="stroke:none" d="M 2.921875 0 L 2.921875 -1.9375 L 10.703125 -1.9375 L 10.703125 0 Z M 0.96875 -1.9375 L 0.96875 -9.71875 L 2.921875 -9.71875 L 2.921875 -1.9375 Z M 0.96875 -1.9375 "/></g></g><g style="fill:#000000;fill-opacity:1;"><g transform="translate(125.352375, 60.717502)"><path style="stroke:none" d=""/></g></g><g style="fill:#000000;fill-opacity:1;"><g transform="translate(80.47036, 77.287762)"><path style="stroke:none" d="M 2.921875 -7.78125 L 2.921875 -5.828125 L 0.96875 -5.828125 L 0.96875 -7.78125 Z M 0.96875 0 L 0.96875 -1.9375 L 8.75 -1.9375 L 8.75 0 Z M 2.921875 -3.890625 L 2.921875 -5.828125 L 8.75 -5.828125 L 8.75 -3.890625 Z M 2.921875 -7.78125 L 2.921875 -9.71875 L 10.703125 -9.71875 L 10.703125 -7.78125 Z M 8.75 -1.9375 L 8.75 -3.890625 L 10.703125 -3.890625 L 10.703125 -1.9375 Z M 8.75 -1.9375 "/></g></g><g style="fill:#000000;fill-opacity:1;"><g transform="translate(92.132483, 77.287762)"><path style="stroke:none" d="M 4.859375 0 L 4.859375 -7.78125 L 0.96875 -7.78125 L 0.96875 -9.71875 L 10.703125 -9.71875 L 10.703125 -7.78125 L 6.8125 -7.78125 L 6.8125 0 Z M 4.859375 0 "/></g></g><g style="fill:#000000;fill-opacity:1;"><g transform="translate(103.794607, 77.287762)"><path style="stroke:none" d="M 0.96875 0 L 0.96875 -7.78125 L 2.921875 -7.78125 L 2.921875 -3.890625 L 8.75 -3.890625 L 8.75 -7.78125 L 10.703125 -7.78125 L 10.703125 0 L 8.75 0 L 8.75 -1.9375 L 2.921875 -1.9375 L 2.921875 0 Z M 2.921875 -7.78125 L 2.921875 -9.71875 L 8.75 -9.71875 L 8.75 -7.78125 Z M 2.921875 -7.78125 "/></g></g><g style="fill:#000000;fill-opacity:1;"><g transform="translate(115.456731, 77.287762)"><path style="stroke:none" d="M 4.859375 0 L 4.859375 -7.78125 L 0.96875 -7.78125 L 0.96875 -9.71875 L 10.703125 -9.71875 L 10.703125 -7.78125 L 6.8125 -7.78125 L 6.8125 0 Z M 4.859375 0 "/></g></g><g style="fill:#000000;fill-opacity:1;"><g transform="translate(127.118854, 77.287762)"><path style="stroke:none" d="M 0.96875 0 L 0.96875 -1.9375 L 2.921875 -1.9375 L 2.921875 -7.78125 L 0.96875 -7.78125 L 0.96875 -9.71875 L 6.8125 -9.71875 L 6.8125 -7.78125 L 4.859375 -7.78125 L 4.859375 -1.9375 L 6.8125 -1.9375 L 6.8125 0 Z M 0.96875 0 "/></g></g><g style="fill:#000000;fill-opacity:1;"><g transform="translate(134.893611, 77.287762)"><path style="stroke:none" d="M 8.75 -1.9375 L 8.75 0 L 2.921875 0 L 2.921875 -1.9375 Z M 0.96875 -1.9375 L 0.96875 -7.78125 L 2.921875 -7.78125 L 2.921875 -1.9375 Z M 2.921875 -7.78125 L 2.921875 -9.71875 L 8.75 -9.71875 L 8.75 -7.78125 Z M 8.75 -1.9375 L 8.75 -7.78125 L 10.703125 -7.78125 L 10.703125 -1.9375 Z M 8.75 -1.9375 "/></g></g><g style="fill:#000000;fill-opacity:1;"><g transform="translate(146.555735, 77.287762)"><path style="stroke:none" d="M 8.75 0 L 8.75 -1.9375 L 6.8125 -1.9375 L 6.8125 -3.890625 L 8.75 -3.890625 L 8.75 -9.71875 L 10.703125 -9.71875 L 10.703125 0 Z M 0.96875 0 L 0.96875 -9.71875 L 2.921875 -9.71875 L 2.921875 -7.78125 L 4.859375 -7.78125 L 4.859375 -5.828125 L 2.921875 -5.828125 L 2.921875 0 Z M 4.859375 -3.890625 L 4.859375 -5.828125 L 6.8125 -5.828125 L 6.8125 -3.890625 Z M 4.859375 -3.890625 "/></g></g><g style="fill:#000000;fill-opacity:1;"><g transform="translate(158.22483, 77.287762)"><path style="stroke:none" d=""/></g></g></g></svg>