<svg xmlns="http://www.w3.org/2000/svg" xmlns:xlink="http://www.w3.org/1999/xlink" width="1080" zoomAndPan="magnify" viewBox="0 0 810 1012.49997" height="1350" preserveAspectRatio="xMidYMid meet" version="1.2"><defs><clipPath id="c840c54f79"><path d="M 220 135.792969 L 590 135.792969 L 590 566 L 220 566 Z M 220 135.792969 "/></clipPath></defs><g id="22806cb252"><g clip-rule="nonzero" clip-path="url(#c840c54f79)"><path style=" stroke:none;fill-rule:nonzero;fill:#445ebe;fill-opacity:1;" d="M 405 565.503906 C 506.808594 565.503906 589.332031 426.324219 589.332031 324.523438 C 589.332031 222.71875 506.808594 135.9375 405 135.9375 C 303.195312 135.9375 220.664062 222.714844 220.664062 324.523438 C 220.664062 426.324219 303.195312 565.503906 405 565.503906 Z M 405 565.503906 "/></g><path style=" stroke:none;fill-rule:nonzero;fill:#445ebe;fill-opacity:1;" d="M 405 590.027344 C 303.195312 590.027344 1.214844 672.5625 1.214844 774.359375 C 1.214844 876.164062 303.195312 870.921875 405 870.921875 C 506.808594 870.921875 808.785156 876.164062 808.785156 774.359375 C 808.785156 672.5625 506.808594 590.027344 405 590.027344 Z M 405 590.027344 "/></g></svg>